<svg width="24" height="24" fill="none" xmlns="http://www.w3.org/2000/svg"><path d="M12 21a9 9 0 100-18 9 9 0 000 18z" stroke="#231F20" stroke-linecap="round" stroke-linejoin="round"/><path d="M20.078 15.972l-5.09-3.13a.75.75 0 00-.292-.104l-2.14-.288a.75.75 0 00-.785.438l-1.284 2.881a.749.749 0 00.134.815l1.763 1.906a.75.75 0 01.186.652l-.36 1.855" stroke="#231F20" stroke-linecap="round" stroke-linejoin="round"/><path d="M6.09 5.213l-.84 1.983a.75.75 0 00-.01.555l1.076 2.875a.75.75 0 00.545.47l2.01.432a.75.75 0 01.517.407l.356.737a.75.75 0 00.675.423h1.26" stroke="#231F20" stroke-linecap="round" stroke-linejoin="round"/><path d="M14.293 3.295l.875 1.568a.75.75 0 01-.152.921l-2.523 2.282a.748.748 0 01-.14.1l-1.148.634a.75.75 0 01-.362.094H8.84a.75.75 0 00-.69.458l-.781 1.854" stroke="#231F20" stroke-linecap="round" stroke-linejoin="round"/></svg>