<?xml version="1.0" encoding="utf-8"?><svg xmlns="http://www.w3.org/2000/svg" xmlns:xlink="http://www.w3.org/1999/xlink"><symbol fill="none" viewBox="0 0 229 20" id="arrow-right" xmlns="http://www.w3.org/2000/svg"><path d="M0 10h227.5m0 0-9-9m9 9-9 9" stroke="#fff"/></symbol><symbol fill="none" viewBox="0 0 18 18" id="check" xmlns="http://www.w3.org/2000/svg"><path d="M12.094 7.313 7.969 11.25 5.906 9.281" stroke="#231F20" stroke-linecap="round" stroke-linejoin="round"/><path d="M9 15.75a6.75 6.75 0 1 0 0-13.5 6.75 6.75 0 0 0 0 13.5Z" stroke="#231F20" stroke-linecap="round" stroke-linejoin="round"/></symbol><symbol fill="none" viewBox="0 0 22 21" id="email" xmlns="http://www.w3.org/2000/svg"><path d="M17 3.5 11 9 5 3.5" stroke="#C1CCD7" stroke-linecap="round" stroke-linejoin="round"/><path d="M5 3.5h12V12a.5.5 0 0 1-.5.5h-11A.5.5 0 0 1 5 12V3.5ZM9.91 8l-4.756 4.359M16.846 12.359 12.09 8" stroke="#C1CCD7" stroke-linecap="round" stroke-linejoin="round"/></symbol><symbol fill="none" viewBox="0 0 16 16" id="phone" xmlns="http://www.w3.org/2000/svg"><path d="M9.964 2.5A5.009 5.009 0 0 1 13.5 6.036M9.446 4.432a3.006 3.006 0 0 1 2.122 2.122M5.78 7.8a5.272 5.272 0 0 0 2.44 2.43.496.496 0 0 0 .49-.036l1.565-1.044a.5.5 0 0 1 .474-.043l2.927 1.254a.498.498 0 0 1 .3.519A3 3 0 0 1 11 13.5 8.5 8.5 0 0 1 2.5 5a3 3 0 0 1 2.62-2.976.498.498 0 0 1 .519.3l1.255 2.93a.5.5 0 0 1-.04.47l-1.04 1.589a.495.495 0 0 0-.034.488v0Z" stroke="#C1CCD7" stroke-linecap="round" stroke-linejoin="round"/></symbol><symbol fill="none" viewBox="0 0 24 24" id="pin" xmlns="http://www.w3.org/2000/svg"><path d="M12 12.75a3 3 0 1 0 0-6 3 3 0 0 0 0 6Z" stroke="#231F20" stroke-width="1.5" stroke-linecap="round" stroke-linejoin="round"/><path d="M19.5 9.75c0 6.75-7.5 12-7.5 12s-7.5-5.25-7.5-12a7.5 7.5 0 0 1 15 0v0Z" stroke="#231F20" stroke-width="1.5" stroke-linecap="round" stroke-linejoin="round"/></symbol><symbol fill="none" viewBox="0 0 20 20" id="plane" xmlns="http://www.w3.org/2000/svg"><path d="M16.426 2.803 1.869 6.909a.625.625 0 0 0-.098 1.166l6.688 3.168c.13.062.236.167.298.298l3.168 6.688a.625.625 0 0 0 1.166-.098l4.106-14.557a.625.625 0 0 0-.771-.771ZM8.661 11.339l3.536-3.536" stroke="currentColor" stroke-width="2" stroke-linecap="round" stroke-linejoin="round"/></symbol></svg>