<?xml version="1.0" encoding="utf-8"?><svg viewBox="0 0 229 24" xmlns="http://www.w3.org/2000/svg" xmlns:xlink="http://www.w3.org/1999/xlink"><style>:root>svg{display:none}:root>svg:target{display:block}</style><svg fill="none" viewBox="0 0 229 20" id="arrow-right" xmlns="http://www.w3.org/2000/svg"><path d="M0 10h227.5m0 0-9-9m9 9-9 9" stroke="#fff"/></svg><svg fill="none" viewBox="0 0 18 18" id="check" xmlns="http://www.w3.org/2000/svg"><path d="M12.094 7.313 7.969 11.25 5.906 9.281" stroke="#231F20" stroke-linecap="round" stroke-linejoin="round"/><path d="M9 15.75a6.75 6.75 0 1 0 0-13.5 6.75 6.75 0 0 0 0 13.5Z" stroke="#231F20" stroke-linecap="round" stroke-linejoin="round"/></svg><svg fill="none" viewBox="0 0 22 21" id="email" xmlns="http://www.w3.org/2000/svg"><path d="M17 3.5 11 9 5 3.5" stroke="#C1CCD7" stroke-linecap="round" stroke-linejoin="round"/><path d="M5 3.5h12V12a.5.5 0 0 1-.5.5h-11A.5.5 0 0 1 5 12V3.5ZM9.91 8l-4.756 4.359M16.846 12.359 12.09 8" stroke="#C1CCD7" stroke-linecap="round" stroke-linejoin="round"/></svg><svg fill="none" viewBox="0 0 24 24" id="logistics1" xmlns="http://www.w3.org/2000/svg"><path d="M20.25 20.25v-9.418a.75.75 0 0 0-.245-.555l-7.501-6.82a.75.75 0 0 0-1.01 0l-7.499 6.82a.75.75 0 0 0-.245.555v9.418M1.5 20.25h21" stroke="#231F20" stroke-linecap="round" stroke-linejoin="round"/><path d="M14.25 20.25V15a.75.75 0 0 0-.75-.75h-3a.75.75 0 0 0-.75.75v5.25" stroke="#231F20" stroke-linecap="round" stroke-linejoin="round"/></svg><svg fill="none" viewBox="0 0 24 24" id="logistics2" xmlns="http://www.w3.org/2000/svg"><path d="M12 21a9 9 0 1 0 0-18 9 9 0 0 0 0 18Z" stroke="#231F20" stroke-miterlimit="10"/><path d="M12 6.75V12h5.25" stroke="#231F20" stroke-linecap="round" stroke-linejoin="round"/></svg><svg fill="none" viewBox="0 0 24 24" id="logistics3" xmlns="http://www.w3.org/2000/svg"><path d="M21 16.624V7.376a.75.75 0 0 0-.382-.654l-8.25-4.64a.75.75 0 0 0-.736 0l-8.25 4.64A.75.75 0 0 0 3 7.376v9.248a.75.75 0 0 0 .382.654l8.25 4.64a.75.75 0 0 0 .736 0l8.25-4.64a.75.75 0 0 0 .382-.654Z" stroke="#231F20" stroke-linecap="round" stroke-linejoin="round"/><path d="M20.896 6.996 12.09 12 3.104 6.995M12.089 12l-.088 10.015" stroke="#231F20" stroke-linecap="round" stroke-linejoin="round"/></svg><svg fill="none" viewBox="0 0 24 24" id="logistics4" xmlns="http://www.w3.org/2000/svg"><path d="M18.75 21H5.25a.75.75 0 0 1-.75-.75V3.75A.75.75 0 0 1 5.25 3h9l5.25 5.25v12a.75.75 0 0 1-.75.75Z" stroke="#231F20" stroke-linecap="round" stroke-linejoin="round"/><path d="M14.25 3v5.25h5.25M9 12.75h6M9 15.75h6" stroke="#231F20" stroke-linecap="round" stroke-linejoin="round"/></svg><svg fill="none" viewBox="0 0 24 24" id="logistics5" xmlns="http://www.w3.org/2000/svg"><path d="M12 21a9 9 0 1 0 0-18 9 9 0 0 0 0 18Z" stroke="#231F20" stroke-linecap="round" stroke-linejoin="round"/><path d="m20.078 15.972-5.09-3.13a.75.75 0 0 0-.292-.104l-2.14-.288a.75.75 0 0 0-.785.438l-1.284 2.881a.749.749 0 0 0 .134.815l1.763 1.906a.75.75 0 0 1 .186.652l-.36 1.855" stroke="#231F20" stroke-linecap="round" stroke-linejoin="round"/><path d="m6.09 5.213-.84 1.983a.75.75 0 0 0-.01.555l1.076 2.875a.75.75 0 0 0 .545.47l2.01.432a.75.75 0 0 1 .517.407l.356.737a.75.75 0 0 0 .675.423h1.26" stroke="#231F20" stroke-linecap="round" stroke-linejoin="round"/><path d="m14.293 3.295.875 1.568a.75.75 0 0 1-.152.921l-2.523 2.282a.748.748 0 0 1-.14.1l-1.148.634a.75.75 0 0 1-.362.094H8.84a.75.75 0 0 0-.69.458l-.781 1.854" stroke="#231F20" stroke-linecap="round" stroke-linejoin="round"/></svg><svg fill="none" viewBox="0 0 24 24" id="logistics6" xmlns="http://www.w3.org/2000/svg"><path d="M4.23 18.377a.751.751 0 0 0 .936.55 25.678 25.678 0 0 1 13.663-.002.752.752 0 0 0 .935-.55l2.39-10.154a.75.75 0 0 0-1.035-.857L16.377 9.47a.75.75 0 0 1-.96-.32l-2.761-4.97a.75.75 0 0 0-1.312 0l-2.76 4.97a.75.75 0 0 1-.961.32L2.88 7.363a.75.75 0 0 0-1.035.857l2.386 10.156Z" stroke="#000" stroke-linecap="round" stroke-linejoin="round"/><path d="M9 15.157c1.995-.21 4.005-.21 6 0" stroke="#000" stroke-linecap="round" stroke-linejoin="round"/></svg><svg fill="none" viewBox="0 0 16 16" id="phone" xmlns="http://www.w3.org/2000/svg"><path d="M9.964 2.5A5.009 5.009 0 0 1 13.5 6.036M9.446 4.432a3.006 3.006 0 0 1 2.122 2.122M5.78 7.8a5.272 5.272 0 0 0 2.44 2.43.496.496 0 0 0 .49-.036l1.565-1.044a.5.5 0 0 1 .474-.043l2.927 1.254a.498.498 0 0 1 .3.519A3 3 0 0 1 11 13.5 8.5 8.5 0 0 1 2.5 5a3 3 0 0 1 2.62-2.976.498.498 0 0 1 .519.3l1.255 2.93a.5.5 0 0 1-.04.47l-1.04 1.589a.495.495 0 0 0-.034.488v0Z" stroke="#C1CCD7" stroke-linecap="round" stroke-linejoin="round"/></svg><svg fill="none" viewBox="0 0 24 24" id="pin" xmlns="http://www.w3.org/2000/svg"><path d="M12 12.75a3 3 0 1 0 0-6 3 3 0 0 0 0 6Z" stroke="#231F20" stroke-width="1.5" stroke-linecap="round" stroke-linejoin="round"/><path d="M19.5 9.75c0 6.75-7.5 12-7.5 12s-7.5-5.25-7.5-12a7.5 7.5 0 0 1 15 0v0Z" stroke="#231F20" stroke-width="1.5" stroke-linecap="round" stroke-linejoin="round"/></svg><svg fill="none" viewBox="0 0 20 20" id="plane" xmlns="http://www.w3.org/2000/svg"><path d="M16.426 2.803 1.869 6.909a.625.625 0 0 0-.098 1.166l6.688 3.168c.13.062.236.167.298.298l3.168 6.688a.625.625 0 0 0 1.166-.098l4.106-14.557a.625.625 0 0 0-.771-.771ZM8.661 11.339l3.536-3.536" stroke="currentColor" stroke-width="2" stroke-linecap="round" stroke-linejoin="round"/></svg></svg>