<svg width="18" height="18" fill="none" xmlns="http://www.w3.org/2000/svg"><path d="M9.281 15.187h-5.93a.539.539 0 01-.538-.54V8.719A6.469 6.469 0 019.28 2.25h0a6.469 6.469 0 016.469 6.468v0a6.469 6.469 0 01-6.469 6.469z" stroke="#231F20" stroke-opacity=".5" stroke-linecap="round" stroke-linejoin="round"/><path d="M9.281 9.844a.844.844 0 100-1.688.844.844 0 000 1.688zM5.906 9.844a.844.844 0 100-1.688.844.844 0 000 1.688zM12.656 9.844a.844.844 0 100-1.688.844.844 0 000 1.688z" fill="#231F20" fill-opacity=".5"/></svg>