<svg width="200" height="69" fill="none" xmlns="http://www.w3.org/2000/svg"><path d="M54.267 31.811h4.283v11.195h3.703V31.811h4.285v-2.998H54.267v2.998zM78.711 37.064c.73-.352 1.291-.843 1.68-1.476.4-.651.6-1.439.6-2.366 0-1.382-.444-2.463-1.332-3.243-.887-.777-2.145-1.166-3.775-1.166h-6.327v14.195h3.364v-5.295h2.263s.253.468.4.765l2.302 4.53h4.044l-2.14-4.047c-.213-.417-.67-1.312-1.079-1.895v-.002zm-1.824-2.424c-.374.289-.92.434-1.642.434h-2.322v-3.422h2.322c.721 0 1.266.141 1.642.423.374.283.56.705.56 1.267 0 .563-.188 1.012-.56 1.3v-.002zM107.198 37.007l-6.567-8.194h-2.72v14.193h3.462v-8.19l6.525 8.19h2.723V28.813h-3.423v8.194zM124.075 29.496c-1.068-.604-2.337-.906-3.803-.906-1.467 0-2.715.302-3.785.906a6.143 6.143 0 00-2.461 2.547c-.574 1.095-.862 2.378-.862 3.856 0 1.478.29 2.745.87 3.846a6.261 6.261 0 002.463 2.567c1.062.61 2.318.917 3.773.917 1.454 0 2.735-.305 3.803-.917a6.255 6.255 0 002.471-2.567c.582-1.101.872-2.382.872-3.846s-.29-2.761-.872-3.856a6.216 6.216 0 00-2.471-2.547h.002zm-1.342 9.514c-.548.745-1.369 1.118-2.463 1.118-1.095 0-1.908-.373-2.443-1.118-.533-.745-.801-1.782-.801-3.11 0-1.33.266-2.38.801-3.112.533-.731 1.348-1.097 2.443-1.097 1.094 0 1.915.368 2.463 1.107.547.739.821 1.77.821 3.099 0 1.328-.274 2.366-.821 3.111v.002zM137.516 38.476l-4.291-9.663h-3.205v14.193h3.324v-6.708l3.102 6.708h2.083l3.142-6.827v6.827h3.343V28.813h-3.223l-4.275 9.663zM152.106 28.813h-3.703v14.193h3.703V28.813zM87.796 28.813l-4.9 14.193h3.42l.918-2.88h4.715l.93 2.88h3.42l-4.93-14.193h-3.573zm.241 8.769l1.53-4.944h.074l1.542 4.944h-3.146zM177.61 28.813h-3.572l-4.9 14.195h3.421l.919-2.88h4.714l.932 2.88h3.419l-4.931-14.195h-.002zm-3.331 8.769l1.53-4.944h.073l1.542 4.944h-3.145z" fill="#fff"/><path d="M17.439 32.74H35.04v17.25h13.77V28.982h-3.607v17.381h-6.556V29.111H21.046v-6.593h45.586v-3.627H17.439v13.85zM164.792 37.782c-.164.87-.491 1.544-.973 2.004-.473.45-1.158.678-2.034.678-1.066 0-1.867-.375-2.449-1.145-.59-.781-.89-1.911-.89-3.358 0-.97.134-1.814.396-2.504.257-.671.637-1.191 1.131-1.545.493-.352 1.107-.532 1.833-.532.812 0 1.468.206 1.954.616.488.413.823 1.009.995 1.772.047.215.082.35.082.35h3.37s-.011-.34-.057-.503c-.266-1.249-.709-2.254-1.316-2.99a5.164 5.164 0 00-2.214-1.591c-.843-.311-1.777-.47-2.776-.47-1.401 0-2.636.31-3.678.922-1.044.612-1.863 1.488-2.435 2.6-.568 1.105-.856 2.417-.856 3.897s.284 2.686.846 3.777a6.368 6.368 0 002.422 2.589c1.044.62 2.294.935 3.72.935 1.634 0 3.023-.413 4.126-1.228 1.113-.82 1.873-2.202 2.254-4.096a7.97 7.97 0 00.103-.54h-3.487s-.022.14-.067.368v-.006z" fill="#fff"/></svg>